<svg
        xmlns="http://www.w3.org/2000/svg"
        width="75"
        height="34"
        viewBox="0 0 75 34">
    <g
            fill="none"
            fill-rule="evenodd">
        <path
                stroke="#0E1232"
                stroke-width="2"
                d="M26.068 29.552c-7.03 5.14-16.884 3.595-22.011-3.45C-1.071 19.058.47 9.181 7.499 4.042c7.029-5.14 16.883-3.595 22.01 3.45"></path>
        <path
                fill="#0E1232"
                d="M22.65 27.209l7.326-.001-3.417 6.785-3.91-6.784M9.637 24.934h3.104V7.81H9.637zM15.051 12.633h2.936v1.423c0 .459-.048.845-.048.845h.048c.53-1.037 1.878-2.557 4.356-2.557 2.72 0 4.26 1.423 4.26 4.68v7.91H23.57V17.65c0-1.495-.384-2.508-1.949-2.508-1.636 0-2.84 1.037-3.297 2.508-.168.507-.216 1.062-.216 1.64v5.644H15.05v-12.3M28.624 21.268s1.348 1.35 3.345 1.35c.867 0 1.613-.385 1.613-1.109 0-1.833-5.969-1.591-5.969-5.547 0-2.291 2.046-3.618 4.693-3.618 2.768 0 4.115 1.399 4.115 1.399l-1.13 2.267s-1.132-1.061-3.009-1.061c-.794 0-1.564.338-1.564 1.11 0 1.736 5.968 1.519 5.968 5.475 0 2.05-1.78 3.69-4.693 3.69-3.056 0-4.765-1.81-4.765-1.81l1.396-2.146M37.6 24.934h3.057v-12.3H37.6v12.3zm0-14.399h3.033V7.809H37.6v2.726zM47.78 22.643c1.588 0 3.08-1.158 3.08-3.883 0-1.906-1.01-3.787-3.056-3.787-1.684 0-3.08 1.375-3.08 3.81 0 2.34 1.251 3.86 3.056 3.86zm-.577-10.299c2.695 0 3.537 1.568 3.537 1.568h.048s-.024-.314-.024-.7V7.81h3.057v17.125h-2.889v-1.013c0-.458.049-.796.049-.796h-.049s-1.034 2.099-3.85 2.099c-3.321 0-5.439-2.63-5.439-6.44 0-3.907 2.31-6.44 5.56-6.44zM63.374 17.264c-.048-1.664-1.083-2.556-2.43-2.556-1.565 0-2.647.965-2.936 2.556h5.366zm-2.358-4.92c3.537 0 5.438 2.58 5.438 5.837 0 .362-.071 1.182-.071 1.182H57.91c.193 2.146 1.854 3.256 3.682 3.256 1.974 0 3.538-1.35 3.538-1.35l1.18 2.194s-1.878 1.761-4.934 1.761c-4.067 0-6.594-2.943-6.594-6.44 0-3.787 2.575-6.44 6.233-6.44zM67.441 12.633h2.936v2.123c0 .458-.048.868-.048.868h.048c.553-1.76 2.021-3.16 3.899-3.16.288 0 .553.049.553.049v3.015s-.313-.048-.722-.048c-1.3 0-2.767.747-3.345 2.58-.192.603-.265 1.279-.265 2.002v4.872h-3.056v-12.3"></path>
    </g>
</svg>
